<?xml version="1.0" encoding="UTF-8"?>
<svg id="Layer_1" xmlns="http://www.w3.org/2000/svg" xmlns:xlink="http://www.w3.org/1999/xlink" version="1.1" viewBox="0 0 1200 756.84">
  <!-- Generator: Adobe Illustrator 29.8.2, SVG Export Plug-In . SVG Version: 2.1.1 Build 3)  -->
  <defs>
    <style>
      .st0 {
        fill: none;
      }

      .st1 {
        fill: url(#linear-gradient);
      }

      .st2 {
        clip-path: url(#clippath);
      }
    </style>
    <linearGradient id="linear-gradient" x1="286.69" y1="378.42" x2="1200" y2="378.42" gradientUnits="userSpaceOnUse">
      <stop offset="0" stop-color="#ffad05"/>
      <stop offset="1" stop-color="#ff6200"/>
    </linearGradient>
    <clipPath id="clippath">
      <path class="st0" d="M658.95,97.76c-13.78-13.8-29.52-27.05-48.1-40.54h-21.71c-18.6,13.51-34.32,26.78-48.08,40.54l-78.87,78.85,4.6,29.47c18.09,9.32,34.41,21.21,48.52,35.33l71.64,71.64h26.12l71.66-71.64c14.1-14.12,30.43-26.01,48.52-35.33l4.6-29.47-78.87-78.85Z"/>
    </clipPath>
  </defs>
  <path d="M645.89,110.81C574.42,39.34,479.3,0,378.28,0S182.14,39.34,110.67,110.81c-147.56,147.56-147.56,387.65,0,535.22,71.47,71.48,166.4,110.81,267.61,110.81s192.63-38.23,263.55-107.3l271.49-271.3L645.89,110.81ZM525.2,531.1c-39.75,38.4-91.89,59.52-146.92,59.52s-110-22.06-150.04-62.12c-40-39.98-62.01-93.28-62.01-150.09s22-110.09,61.97-150.06c40.08-40.08,93.35-62.13,150.08-62.13s110.02,22.06,150.08,62.13l149.86,149.84-153.01,152.91Z"/>
  <path class="st1" d="M1089.33,110.81C1017.86,39.34,922.93,0,821.72,0s-196.13,39.34-267.61,110.81l-267.42,267.42,271.49,271.3c70.92,69.07,164.37,107.3,263.55,107.3s196.14-39.34,267.61-110.81c147.56-147.56,147.56-387.65,0-535.22ZM971.8,528.51c-40.06,40.06-93.35,62.12-150.08,62.12s-107.17-21.14-146.94-59.52l-153-152.91,149.86-149.84c40.06-40.08,93.35-62.13,150.07-62.13s110.02,22.06,150.08,62.13c82.75,82.75,82.75,217.39,0,300.15Z"/>
  <g class="st2">
    <path class="st1" d="M1089.33,110.81C1017.86,39.34,922.93,0,821.72,0s-196.13,39.34-267.61,110.81l-267.42,267.42,271.49,271.3c70.92,69.07,164.37,107.3,263.55,107.3s196.14-39.34,267.61-110.81c147.56-147.56,147.56-387.65,0-535.22ZM971.8,528.51c-40.06,40.06-93.35,62.12-150.08,62.12s-107.17-21.14-146.94-59.52l-153-152.91,149.86-149.84c40.06-40.08,93.35-62.13,150.07-62.13s110.02,22.06,150.08,62.13c82.75,82.75,82.75,217.39,0,300.15Z"/>
    <path d="M645.89,110.81C574.42,39.34,479.3,0,378.28,0S182.14,39.34,110.67,110.81c-147.56,147.56-147.56,387.65,0,535.22,71.47,71.48,166.4,110.81,267.61,110.81s192.63-38.23,263.55-107.3l271.49-271.3L645.89,110.81ZM525.2,531.1c-39.75,38.4-91.89,59.52-146.92,59.52s-110-22.06-150.04-62.12c-40-39.98-62.01-93.28-62.01-150.09s22-110.09,61.97-150.06c40.08-40.08,93.35-62.13,150.08-62.13s110.02,22.06,150.08,62.13l149.86,149.84-153.01,152.91Z"/>
  </g>
</svg>