<svg width="932" height="185" viewBox="0 0 932 185" fill="none" xmlns="http://www.w3.org/2000/svg">
<path d="M164.619 129.61L146.379 111.37L128.139 129.61C124.459 133.14 120.399 136.07 116.009 138.35L136.169 158.48C139.419 161.62 142.809 164.51 146.379 167.08C149.949 164.51 153.339 161.62 156.589 158.48L176.749 138.35C172.359 136.07 168.289 133.14 164.619 129.61Z" fill="white"/>
<path d="M222.819 92.28L176.749 138.35C172.359 136.07 168.289 133.14 164.619 129.61L146.379 111.37L165.469 92.28L146.379 73.22L128.889 55.73C125.039 51.88 120.649 48.7 115.939 46.27C108.729 42.52 100.669 40.56 92.2787 40.56C78.4287 40.56 65.4388 45.95 55.6688 55.73C45.9288 65.47 40.5388 78.46 40.5388 92.34C40.5388 106.22 45.9288 119.18 55.6688 128.95C65.4488 138.73 78.4387 144.08 92.2787 144.08C100.629 144.08 108.729 142.08 116.009 138.33L136.169 158.46C139.419 161.6 142.809 164.49 146.379 167.06C130.749 178.48 111.979 184.65 92.2787 184.65C67.5887 184.65 44.4287 175.05 26.9688 157.6C-8.99125 121.62 -8.99125 63.06 26.9788 27.05C44.4288 9.6 67.5887 0 92.2787 0C111.979 0 130.749 6.14 146.379 17.49C150.309 20.34 154.049 23.52 157.589 27.05L176.819 46.28L222.819 92.28Z" fill="white"/>
<path d="M265.789 27.05C248.339 9.6 225.179 0 200.479 0C180.779 0 162.009 6.14 146.379 17.49C150.309 20.34 154.049 23.52 157.589 27.05L176.819 46.28C184.029 42.53 192.089 40.57 200.479 40.57C214.329 40.57 227.319 45.96 237.089 55.74C257.289 75.9 257.289 108.77 237.089 128.97C227.309 138.75 214.319 144.1 200.479 144.1C192.129 144.1 184.029 142.1 176.749 138.35C172.359 136.07 168.289 133.14 164.619 129.61L127.289 92.28L146.379 73.22L128.889 55.73C125.039 51.88 120.649 48.7 115.939 46.27L69.9387 92.27L116.009 138.34L136.169 158.47C139.419 161.61 142.809 164.5 146.379 167.07C162.009 178.49 180.779 184.66 200.479 184.66C225.169 184.66 248.339 175.06 265.789 157.61C301.799 121.6 301.799 63.04 265.789 27.03V27.05Z" fill="url(#paint0_linear_32_156)"/>
<g clip-path="url(#clip0_32_156)">
<path d="M341.63 153.506C336.832 153.506 333.047 152.333 330.274 149.987C327.502 147.535 326.116 143.75 326.116 138.632V39.9504H336.672V137.832C336.672 141.99 338.804 144.07 343.069 144.07H349.787V153.506H341.63ZM367.544 153.506V68.7391H378.099V153.506H367.544ZM367.224 54.6647V40.4303H378.419V54.6647H367.224ZM407.253 153.506V68.7391H416.849L417.169 85.0527C419.195 78.9751 422.661 74.4435 427.565 71.4581C432.469 68.3659 438.014 66.8199 444.198 66.8199C450.702 66.8199 456.034 68.2593 460.192 71.1382C464.351 74.017 467.443 77.9089 469.469 82.8136C471.601 87.6117 472.667 92.9962 472.667 98.9672V153.506H462.111V102.806C462.111 94.489 460.566 87.9849 457.473 83.2934C454.381 78.6019 449.21 76.2562 441.959 76.2562C434.709 76.2562 428.844 78.6019 424.366 83.2934C419.994 87.9849 417.809 94.489 417.809 102.806V153.506H407.253ZM498.973 153.506V39.9504H509.529V117.04L555.431 68.7391H569.505L534.639 104.885L571.584 153.506H558.789L527.602 111.922L509.529 130.475V153.506H498.973Z" fill="white"/>
<path d="M619.977 155.761C609.578 155.761 601.434 152.441 595.546 145.801C589.783 139.035 586.902 129.639 586.902 117.612V52.7773H615.091V111.034C615.091 118.802 616.28 124.503 618.661 128.136C621.042 131.644 624.8 133.398 629.937 133.398C635.7 133.398 640.147 131.456 643.279 127.572C646.537 123.563 648.166 117.612 648.166 109.719V52.7773H676.354V153.506H650.609L650.233 137.156C645.096 149.559 635.011 155.761 619.977 155.761ZM740.613 153.506C730.215 153.506 722.572 151.125 717.686 146.365C712.8 141.478 710.357 133.773 710.357 123.25V73.8251H694.195V52.7773H710.357V29.0986H738.546V52.7773H765.044V73.8251H738.546V119.867C738.546 124.753 739.549 128.073 741.553 129.827C743.683 131.581 746.815 132.458 750.949 132.458H765.044V153.506H740.613ZM785.376 153.506V52.7773H810.746L811.31 69.1269C813.816 63.2386 817.449 58.6657 822.21 55.4083C827.096 52.1509 832.609 50.5222 838.747 50.5222C846.014 50.5222 852.09 52.4015 856.976 56.16C861.862 59.7932 865.37 64.742 867.5 71.0062C869.881 64.3661 873.514 59.2921 878.4 55.7842C883.411 52.2762 889.237 50.5222 895.877 50.5222C906.15 50.5222 914.357 53.7796 920.495 60.2944C926.634 66.8092 929.704 76.2681 929.704 88.6712V153.506H901.515V96.5641C901.515 80.7783 896.441 72.8854 886.293 72.8854C881.156 72.8854 877.147 75.0152 874.265 79.2749C871.51 83.4093 870.131 89.2976 870.131 96.94V153.506H844.761V96.94C844.761 89.1724 843.633 83.2214 841.378 79.087C839.123 74.9526 835.24 72.8854 829.727 72.8854C824.591 72.8854 820.582 75.0152 817.7 79.2749C814.944 83.5346 813.565 89.4229 813.565 96.94V153.506H785.376Z" fill="white"/>
</g>
<defs>
<linearGradient id="paint0_linear_32_156" x1="69.9387" y1="92.34" x2="292.799" y2="92.34" gradientUnits="userSpaceOnUse">
<stop stop-color="#FFAD05"/>
<stop offset="1" stop-color="#FF6200"/>
</linearGradient>
<clipPath id="clip0_32_156">
<rect width="606.162" height="127.15" fill="white" transform="translate(325.796 28.7549)"/>
</clipPath>
</defs>
</svg>
